# xmcd CD database file
#
# Track frame offsets:
#	150
#	16772
#	42590
#	58695
#	75300
#	89085
#	112280
#	128990
#	147770
#	165727
#
# Disc length: 2536 seconds
#
# Revision: 1
# Processed by: cddbd v1.5PL3 Copyright (c) Steve Scherf et al.
# Submitted via: CDex 1.50
#
DISCID=8709e60a
DTITLE=schildpatt - crystals on your face
DYEAR=1990
DGENRE=New Age
TTITLE0=glasseraph
TTITLE1=mizmaze
TTITLE2=chimeras chime
TTITLE3=sunny coxcomb
TTITLE4=pendul
TTITLE5=crystal crypt
TTITLE6=caninde choir
TTITLE7=stalac
TTITLE8=nausikaa
TTITLE9=endless vigil
EXTD=YEAR: 1990
EXTT0=
EXTT1=
EXTT2=
EXTT3=
EXTT4=
EXTT5=
EXTT6=
EXTT7=
EXTT8=
EXTT9=
PLAYORDER=
